<?xml version="1.0" encoding="utf-8"?>
<!-- Generator: Adobe Illustrator 21.1.0, SVG Export Plug-In . SVG Version: 6.00 Build 0)  -->
<svg version="1.1" id="Layer_1" xmlns="http://www.w3.org/2000/svg" xmlns:xlink="http://www.w3.org/1999/xlink" x="0px" y="0px"
	 viewBox="0 0 750 2500" style="enable-background:new 0 0 750 2500;" xml:space="preserve">
<style type="text/css">
	.st0{fill-rule:evenodd;clip-rule:evenodd;}
</style>
<path class="st0" d="M398.9,0L398.9,0c-6.9,0.1-6.9,2.7-8.8,5.2c-2.2,3-3.9,3.4-8.1,3.4c-4.2,0-5.9-0.4-9.1,2.5
	c-3.2,2.9-7.3,2.8-9.3,0.8c-2-2-4.3-9.4-7.3-10.9c-1-0.5-2-1.1-3.1-1v0C-463,1.6-1279.2,3.1-2095.4,4.7c-1,859.1-2,1718.2-3,2577.3
	c1682.2-8,3364.3-16,5046.5-24c0-853.1,0-1706.2,0-2559.3C2098.3-0.9,1248.6-0.4,398.9,0z"/>
</svg>
