<?xml version="1.0" encoding="utf-8"?>
<!-- Generator: Adobe Illustrator 19.0.0, SVG Export Plug-In . SVG Version: 6.00 Build 0)  -->
<svg version="1.1" id="Layer_1" xmlns="http://www.w3.org/2000/svg" xmlns:xlink="http://www.w3.org/1999/xlink" x="0px" y="0px"
	 viewBox="0 0 750 2000" style="enable-background:new 0 0 750 2000;" xml:space="preserve">
<style type="text/css">
	.st0{fill:#75C1EB;}
</style>
<path id="XMLID_2_" d="M-1088-215l4,2208l1079.4,0.7c6.7,0,6.7,6.1,13.5,6.1c6.7,0,6.7-6.1,13.5-6.1c6.7,0,6.7,6.1,13.5,6.1
	c6.7,0,6.7-6.1,13.5-6.1c6.7,0,6.7,6.1,13.5,6.1c6.7,0,6.7-6.1,13.5-6.1c6.7,0,6.7,6.1,13.5,6.1h0c6.7,0,6.7-6.1,13.5-6.1
	c6.7,0,6.7,6.1,13.5,6.1c6.7,0,6.7-6.1,13.5-6.1c6.7,0,6.7,6.1,13.5,6.1c6.7,0,6.7-6.1,13.5-6.1c6.7,0,6.7,6.1,13.5,6.1
	s6.7-6.1,13.5-6.1c6.7,0,6.7,6.1,13.5,6.1c6.7,0,6.7-6.1,13.5-6.1c6.7,0,6.7,6.1,13.5,6.1c6.7,0,6.7-6.1,13.5-6.1
	c6.7,0,6.7,6.1,13.5,6.1c6.7,0,6.7-6.1,13.5-6.1c6.7,0,6.7,6.1,13.5,6.1h0c6.7,0,6.7-6.1,13.5-6.1c6.7,0,6.7,6.1,13.5,6.1
	c6.7,0,6.7-6.1,13.5-6.1c6.7,0,6.7,6.1,13.5,6.1c6.7,0,6.7-6.1,13.5-6.1c6.7,0,6.7,6.1,13.5,6.1s6.7-6.1,13.5-6.1s6.7,6.1,13.5,6.1
	s6.7-6.1,13.5-6.1c6.7,0,6.7,6.1,13.5,6.1c6.7,0,6.7-6.1,13.5-6.1c6.7,0,6.7,6.1,13.5,6.1c6.7,0,6.7-6.1,13.5-6.1
	c6.7,0,6.7,6.1,13.5,6.1h0c6.7,0,6.7-6.1,13.5-6.1c6.7,0,6.7,6.1,13.5,6.1c6.7,0,6.7-6.1,13.5-6.1c6.7,0,6.7,6.1,13.5,6.1
	c6.7,0,6.7-6.1,13.5-6.1c6.7,0,6.7,6.1,13.5,6.1c6.7,0,6.7-6.1,13.5-6.1s6.7,6.1,13.5,6.1c6.7,0,6.7-6.1,13.5-6.1
	c6.7,0,6.7,6.1,13.5,6.1c6.7,0,6.7-6.1,13.5-6.1c6.7,0,6.7,6.1,13.5,6.1c6.7,0,6.7-6.1,13.5-6.1c6.7,0,6.7,6.1,13.5,6.1l0,0h0
	c0,0,0,0,0,0l0,0c6.7,0,6.7-6.1,13.5-6.1c6.7,0,6.7,6.1,13.5,6.1c6.7,0,6.7-6.1,13.5-6.1c6.7,0,6.7,6.1,13.5,6.1
	c6.7,0,6.7-6.1,13.5-6.1c6.7,0,6.7,6.1,13.5,6.1c6.7,0,6.7-6.1,13.5-6.1l873.2,0.8L1628-211L-1088-215z"/>
<path id="XMLID_1_" class="st0" d="M-5,1974"/>
<path id="XMLID_4_" class="st0" d="M750,1974"/>
</svg>
