<?xml version="1.0" encoding="utf-8"?>
<!-- Generator: Adobe Illustrator 21.1.0, SVG Export Plug-In . SVG Version: 6.00 Build 0)  -->
<svg version="1.1" id="select_xA0_Image_1_" xmlns="http://www.w3.org/2000/svg" xmlns:xlink="http://www.w3.org/1999/xlink"
	 x="0px" y="0px" viewBox="0 0 755.9 2500" style="enable-background:new 0 0 755.9 2500;" xml:space="preserve">
<style type="text/css">
	.st0{stroke:#000000;stroke-miterlimit:10;}
</style>
<path class="st0" d="M3626,1066.5V18.5h-515.1C2374.7,12.8,1638.6,7,902.5,1.3V0.5H766.3c0,1.8,0,3.5,0,5.3c-2.3,0.4-4.7,3.5-4.6,6
	c0.1,2.5,1.4,3.8,4.6,4.3c0,2.4,0,4.7,0,7.1c-1-0.8-2.2-1.4-3-2.4c-1.8-2.1-3.4-4.3-5-6.6c-3-4.2-7.9-4.6-11.6-1
	c-2,2-4.1,3.9-6.5,5.4c-2.8,1.8-6,2-9.3,1.1c-0.7-0.2-1.5-0.5-2.1-0.8c-0.5,1.7-0.9,3.4-1.7,4.8c-0.4,0.8-1.6,1.7-2.4,1.7
	c-0.8,0-1.9-1-2.2-1.8c-0.7-2-1.1-4.2-1.3-6.3c-0.1-0.6,0.8-1.3,1.3-1.9c0.6-0.8,1.8-1.7,1.8-2.4c-0.2-1.7-2.4-3.2-4-2.7
	c-3.6,1-7.3,2.1-10.8,3.6c-3.9,1.6-7.5,3.7-11.4,5.4c-1.8,0.8-3.7,1.5-5.6,1.6c-1.4,0.1-3.2-0.2-4.3-1c-4.4-3.1-9.2-3.4-13.5-0.2
	c-2,1.5-3.9,2.4-6.5,1.6c-2.2-0.7-3.9,0.3-5.2,2.2c-2.2,3.3-5.1,3.5-7.9,0.6c-1.2-1.3-2.1-2.9-1.7-4.8c0.5-2,2.2-2.2,3.8-2.6
	c1.7-0.3,3.4-0.5,5.1-0.6c4.1-0.3,7.7-1.8,11-4.4c1.3-1,2.7-1.9,4-2.8c1.8-1.3,1.8-2.8-0.3-3.4C670,3.4,663,1,655.2,2.4
	c-6.6,1.1-12.8,2.5-18.2,6.7c-3.2,2.5-7,3.8-11,4.6c-2.8,0.5-4.9,2-6.2,4.4c-1.7,3-3.8,5-7.5,5.1c-2.3,0.1-4,1.4-4.9,3.7
	c-0.4,1.1-1,2.2-2.5,1.4c-1.3-0.7-1.1-1.9-0.5-3.1c1.3-2.5,3.5-3.6,6.1-4.2c2.4-0.5,4-1.9,5.3-3.8c1.4-2.1,0.6-3.7-1.9-3.6
	c-1.7,0.1-3.6,0.5-5.1,1.3c-2.9,1.6-5.5,3.5-8.3,5.3c-1.8,1.1-3.4,2.5-5.3,3.3c-2.7,1.2-6.5-0.9-7.5-4c-1-3,0.8-6.4,3.7-7.2
	c1.4-0.4,2.9-0.5,4.3-0.5c6.4,0.2,12.5-0.9,18.6-2.9c2.1-0.7,4.2-1.2,6.2-1.8c0.5-0.1,1-0.4,1.4-0.6c3.1-1.7,4.1-3.8,2.8-6H-80.5
	v0.1c-1112.5,2-2225,4-3337.5,5.9v1060h-4v1492h7052v-1492H3626z M584.4,36.6c0.1-0.5,0.7-1,1.2-1.2c0.2-0.1,1,0.6,1,0.8
	c-0.1,0.6-0.6,1-1,1.9C585,37.4,584.3,36.9,584.4,36.6z M715.4,28.8c0.7,0.1,1.3,0.8,2.4,1.5c-1.1,0.9-1.7,1.4-2.4,1.9
	c-0.5-0.7-1.2-1.3-1.5-2.1C713.9,29.8,715,28.7,715.4,28.8z M641.3,25.6c1.8,0,3.1,1.4,3.1,3.1c-0.1,2-1.1,3.2-2.7,3.2
	c-1.8,0-3.2-1.8-3.1-4.1C638.5,26.4,639.6,25.6,641.3,25.6z M631.5,30c0.4-0.1,1.6,1,1.5,1.4c-0.1,0.8-0.8,1.5-1.6,2.8
	c-0.8-1.3-1.7-2-1.6-2.7C629.9,31,630.9,30.1,631.5,30z M583.8,3.8c1.9,0,3.4,1.5,3.4,3.5c0,1.7-1.1,3-2.6,3.1
	c-1.8,0.1-3.8-1.7-3.9-3.4C580.6,5.4,582.1,3.9,583.8,3.8z M570.6,17.8c0.1-0.8,1-1.5,2-2.7c1,1.3,1.9,2,1.9,2.8
	c0,0.6-1,1.6-1.7,1.7C571.8,19.7,570.4,19.2,570.6,17.8z"/>
</svg>
