<?xml version="1.0" encoding="utf-8"?>
<!-- Generator: Adobe Illustrator 21.1.0, SVG Export Plug-In . SVG Version: 6.00 Build 0)  -->
<svg version="1.1" id="Layer_1" xmlns="http://www.w3.org/2000/svg" xmlns:xlink="http://www.w3.org/1999/xlink" x="0px" y="0px"
	 viewBox="0 0 756.5 2500" style="enable-background:new 0 0 756.5 2500;" xml:space="preserve">
<style type="text/css">
	.st0{fill-rule:evenodd;clip-rule:evenodd;}
</style>
<path class="st0" d="M3076.1,199.7h-12v-153h-427.7C2239.2,42.6,1514.7,49.2,755.7,59c-0.6-13.5-1.4-22.7-2.4-25.2
	c-0.5-1.3-1.9-4.4-3.7-4.4c-4.8,0-6.2,7.3-6.5,13.4c-0.1,3.1,0.4,6.9,1,10.5c0.9,5.7,1.6,10.6-0.7,11.7c-0.4,0.2-0.7,0.3-1,0.3
	c-0.4,0-0.7-0.1-0.9-0.4c-1.3-1.4-1.1-6.5-0.4-16c0.3-4.1-0.9-6-1.6-6.8c-0.6-0.6-1.3-1-2-1c-0.3,0-0.7,0.1-1,0.2
	c-2.8,1.3-4.9,5.7-5.8,12.2c-1.1,7.9-0.4,18.3,2,30.2c1.7,8.6,1.7,13.9-0.2,16.1c-0.7,0.9-1.7,1.3-2.9,1.3c-1,0-1.8-0.3-2.4-1
	c-2-2.3-1.2-8.1-0.2-15.4l0.2-1.3c1.2-8.9,1.3-21.8,0.2-32.9c-1.2-11.8-3.3-19.1-5.8-19.6c-0.2,0-0.4-0.1-0.6-0.1
	c-3.2,0-4,5.1-4.9,10.5c-1,6.2-2.1,12.7-6.9,12.7c-0.2,0-0.4,0-0.6,0c-4-0.4-6.8-3.3-8.4-8.9c-1.4-4.8-1.8-11-2.1-16.4
	c-0.4-7.3-0.8-14.1-3.6-15c-0.6-0.2-1.2-0.3-1.8-0.3c-3.7,0-4.7,4.7-5.7,9.6c-1,4.8-2,9.9-5.9,10.6c2.6-0.5-4.6,3.2-6-6.8
	c-1.1-7.4-1.6-13.6-8.5-13.6V13H415.9c6.5,6.6,11.2,15,13.4,24.3h-0.1c-6.1-21-27.6-36.7-50.2-36.7c-22.6,0-43.9,15.7-49.9,36.7
	h-0.4c2.2-9.3,6.9-17.7,13.4-24.3H51.3c-1.4,0.6-6.3,3.6-5.2,14.2c0.6,6.2-0.6,9.2-3.5,9.2c-2.9,0-4-3.1-3.1-9.2
	c1.8-12.3-7.4-12.1-7.9-3.8c-0.5,8.2,1.9,22.3-5.3,22.3s-6.2-9.7-6.2-15.1c0-5.4-3.1-10.2-7.4-10c-4.3,0.2-6.4,8.2-7.9,14.3
	c0,0-1.6,2-4.3,4.6C-5.3,45-777,31.3-1541.4,16.3V4.7h-591.1v411h3.7c1.8,435,3.5,870.1,5.3,1305.1v795.1h5193.5v-795.1h6V199.7z"/>
</svg>
