<?xml version="1.0" encoding="utf-8"?>
<!-- Generator: Adobe Illustrator 21.1.0, SVG Export Plug-In . SVG Version: 6.00 Build 0)  -->
<svg version="1.1" id="Layer_1" xmlns="http://www.w3.org/2000/svg" xmlns:xlink="http://www.w3.org/1999/xlink" x="0px" y="0px"
	 viewBox="0 0 750 2500" style="enable-background:new 0 0 750 2500;" xml:space="preserve">
<style type="text/css">
	.st0{fill-rule:evenodd;clip-rule:evenodd;}
</style>
<path class="st0" d="M2187,301.7c-1-17.2-2-34.3-3-51.5v-31.7h-1.8c-4.4-75.3-8.8-150.6-13.2-225.9
	C1696.1-1.2,1223.1,4.9,750.2,10.9c-9.6-0.1-14.9-9.5-24.5-7c-8.9,2.3-9.2,14-18,16c-13.8,3.1-13.2-15-23-17
	c-11-2.3-17.7,9-27.1,10.9C648.9,15.6,635.8,5,627,3.2c-11.7-2.3-9.3,13-18.8,13.8c-11.6,1-15.9-14.2-23.9-15.9
	c-7-1.5-13.4,11.8-22,12.5c-11.8,1-13.8-13.7-25-8.5c-7.1,3.3-8.9,18.2-21.1,15.3c-8.4-2-6.8-13.6-14.5-16.6
	c-12.7-4.9-16.5,12.5-28.9,10.2c-8.8-1.6-22.4-12.3-30.3-10.7c-7.8,1.6-7.3,11.4-14.8,10.2c-4-0.6-4.8-7.2-9.9-9.5
	c-9.5-4.2-20.6,6.8-30.8,7c-9.7-0.1-15.1-9.5-24.7-7c-8.9,2.3-9.4,14-18.2,16c-13.8,3.1-13.2-15-23-17c-11-2.3-21.1,9.7-31.3,10.5
	C281,14.2,272.3,5,263.4,3.2C251.7,0.8,255.2,18.2,246,16c-7.1-1.7-4.9-11.2-12.8-12.9c-7-1.5-18.7,6.3-25.7,7.8
	c-11.6,2.4-15-12.5-26.1-7.3c-7.1,3.3-12.8,10.3-21.2,9.5c-6.3-0.6-12.3-8.7-20.1-11.7c-12.7-4.9-18.4,14.7-30.8,12.4
	C100.5,12.2,86.8,1.5,79,3.2C71.2,4.8,71.5,17.7,64.1,16c-6.3-1.4-4.9-9.8-10.1-12.1c-9.5-4.2-20.4,6.8-31,7h0
	c-9.6-0.1-14.9-9.5-24.5-7c-1.7,0.4-3.1,1.2-4.3,2.2C-651-0.4-1296.2-6.8-1941.4-13.3c1.7,77.3,3.4,154.6,5.1,231.9h-6.9v2309.5
	H2184V301.7C2185,301.7,2186,301.7,2187,301.7z"/>
</svg>
