<?xml version="1.0" encoding="utf-8"?>
<!-- Generator: Adobe Illustrator 19.0.0, SVG Export Plug-In . SVG Version: 6.00 Build 0)  -->
<svg version="1.1" id="Layer_1" xmlns="http://www.w3.org/2000/svg" xmlns:xlink="http://www.w3.org/1999/xlink" x="0px" y="0px"
	 viewBox="0 0 750 1000" style="enable-background:new 0 0 750 1000;" xml:space="preserve">
<path id="XMLID_2_" d="M-820,1063L-822,7L-2,6.4c6.7,0,6.7-6.1,13.5-6.1c6.7,0,6.7,6.1,13.5,6.1c6.7,0,6.7-6.1,13.5-6.1
	c6.7,0,6.7,6.1,13.5,6.1c6.7,0,6.7-6.1,13.5-6.1c6.7,0,6.7,6.1,13.5,6.1c6.7,0,6.7-6.1,13.5-6.1h0c6.7,0,6.7,6.1,13.5,6.1
	c6.7,0,6.7-6.1,13.5-6.1c6.7,0,6.7,6.1,13.5,6.1c6.7,0,6.7-6.1,13.5-6.1c6.7,0,6.7,6.1,13.5,6.1c6.7,0,6.7-6.1,13.5-6.1
	c6.7,0,6.7,6.1,13.5,6.1c6.7,0,6.7-6.1,13.5-6.1c6.7,0,6.7,6.1,13.5,6.1c6.7,0,6.7-6.1,13.5-6.1c6.7,0,6.7,6.1,13.5,6.1
	c6.7,0,6.7-6.1,13.5-6.1c6.7,0,6.7,6.1,13.5,6.1c6.7,0,6.7-6.1,13.5-6.1h0c6.7,0,6.7,6.1,13.5,6.1c6.7,0,6.7-6.1,13.5-6.1
	c6.7,0,6.7,6.1,13.5,6.1c6.7,0,6.7-6.1,13.5-6.1c6.7,0,6.7,6.1,13.5,6.1c6.7,0,6.7-6.1,13.5-6.1s6.7,6.1,13.5,6.1s6.7-6.1,13.5-6.1
	c6.7,0,6.7,6.1,13.5,6.1c6.7,0,6.7-6.1,13.5-6.1c6.7,0,6.7,6.1,13.5,6.1c6.7,0,6.7-6.1,13.5-6.1c6.7,0,6.7,6.1,13.5,6.1
	c6.7,0,6.7-6.1,13.5-6.1h0c6.7,0,6.7,6.1,13.5,6.1c6.7,0,6.7-6.1,13.5-6.1c6.7,0,6.7,6.1,13.5,6.1c6.7,0,6.7-6.1,13.5-6.1
	c6.7,0,6.7,6.1,13.5,6.1c6.7,0,6.7-6.1,13.5-6.1c6.7,0,6.7,6.1,13.5,6.1c6.7,0,6.7-6.1,13.5-6.1c6.7,0,6.7,6.1,13.5,6.1
	c6.7,0,6.7-6.1,13.5-6.1c6.7,0,6.7,6.1,13.5,6.1c6.7,0,6.7-6.1,13.5-6.1c6.7,0,6.7,6.1,13.5,6.1c6.7,0,6.7-6.1,13.5-6.1l0,0h0
	c0,0,0,0,0,0l0,0c6.7,0,6.7,6.1,13.5,6.1c6.7,0,6.7-6.1,13.5-6.1c6.7,0,6.7,6.1,13.5,6.1c6.7,0,6.7-6.1,13.5-6.1
	c6.7,0,6.7,6.1,13.5,6.1c6.7,0,6.7-6.1,13.5-6.1c6.7,0,6.7,6.1,13.5,6.1L1288,7l-2,1058L-820,1063z"/>
</svg>
