<?xml version="1.0" encoding="utf-8"?>
<!-- Generator: Adobe Illustrator 21.1.0, SVG Export Plug-In . SVG Version: 6.00 Build 0)  -->
<svg version="1.1" id="Layer_1" xmlns="http://www.w3.org/2000/svg" xmlns:xlink="http://www.w3.org/1999/xlink" x="0px" y="0px"
	 viewBox="0 0 756.5 2500" style="enable-background:new 0 0 756.5 2500;" xml:space="preserve">
<style type="text/css">
	.st0{fill-rule:evenodd;clip-rule:evenodd;}
</style>
<path class="st0" d="M2199-55.3h-4098.4V2173c-0.2,0-0.4,0-0.6,0c-0.7,94-1.3,188-2,282c634.2,0,1268.3,0,1902.5,0v0.2h313.2
	c1.9,0.7,6.4,2.1,8.1,7.3c0.6,1.7,1.2,3.8-0.3,7.1c-1.5,3.3-2.6,5.7-2,9c0.6,3.3,6.6,3.6,7.6-0.4c1.1-4.6-2.2-6.7-2-11.3
	s0.2-7.6,4.1-8.5c4-0.9,6.5,1.8,8.1,3.4c1.6,1.6,4.9,4.7,10.4,4.3c5.6-0.4,1.1,6.9,0.7,8.6c-0.4,1.6-3,10.6,4.4,10.6s5.5-9.7,4-13.4
	c-1.4-3.7-0.1-6.3,2.9-7.6c2.9-1.2,7,2.3,9.9,5c2.9,2.7,4.7,3.7,9.1,3.7c4.4,0,6.2-0.4,9.6,2.7c3.4,3.1,7.8,2.9,9.9,0.8
	c2.1-2.1,4.5-11.7,7.8-13.2c3.2-1.6,7.1-0.9,10,6.5c2.9,7.4,5.2,8.8,2.9,16.9c-2.3,8.1-0.5,12.8,3.2,12.6c4.9-0.3,4.9-7,2.6-13.9
	c-2.3-6.9,3.1-11.5,4.9-14.5c1.8-3,1.5-5.3,2.3-8.2c0.8-2.9,2.5-4.9,6.3-3.4c3.2,1.2,4.3,5.1,8.1,4.2c2.7-0.7,4-7.7,8.3-8.2
	c0.2,0,0.3,0,0.5-0.1h301v-0.2c479.9,2.7,959.7,5.3,1439.6,8c0-54.4,0-108.7,0-163.1h3V-55.3z"/>
</svg>
