<?xml version="1.0" encoding="utf-8"?>
<!-- Generator: Adobe Illustrator 21.1.0, SVG Export Plug-In . SVG Version: 6.00 Build 0)  -->
<svg version="1.1" id="Layer_1" xmlns="http://www.w3.org/2000/svg" xmlns:xlink="http://www.w3.org/1999/xlink" x="0px" y="0px"
	 viewBox="0 0 750 2500" style="enable-background:new 0 0 750 2500;" xml:space="preserve">
<path d="M2942.5,2243.7V-246.6H-2350v2418.4c-1.7,0-3.5,0-5.2-0.1l6,333c783.2-1.5,1566.3-2.9,2349.5-4.4h323.1
	c6.1-0.3,10.8-1,14.9-2.1c1-0.3,1.9-0.6,2.9-0.8c10.6-3.1,17.5-7.6,36.8-7.6c27.9,0,29.4,9.4,54.6,10.5h323.6
	c728.1,3.5,1456.1,6.9,2184.2,10.4l6-267C2945.1,2243.7,2943.8,2243.7,2942.5,2243.7z"/>
</svg>
