<?xml version="1.0" encoding="utf-8"?>
<!-- Generator: Adobe Illustrator 21.1.0, SVG Export Plug-In . SVG Version: 6.00 Build 0)  -->
<svg version="1.1" id="select_xA0_Image_1_" xmlns="http://www.w3.org/2000/svg" xmlns:xlink="http://www.w3.org/1999/xlink"
	 x="0px" y="0px" viewBox="0 0 755.9 2500" style="enable-background:new 0 0 755.9 2500;" xml:space="preserve">
<style type="text/css">
	.st0{stroke:#000000;stroke-miterlimit:10;}
</style>
<path class="st0" d="M2174-58.7h-3699.4v2361.2h0.7c-0.4,66.3-0.9,132.6-1.3,199c468.3-0.7,936.7-1.3,1405-2v-0.4h108.4
	c0-1.8,0-3.7,0-5.5c2.1-1.5,3.9-3.3,3.8-6.2c-0.1-2.5-1.8-3.4-3.8-4.1c0-2.2,0-4.5,0-6.7c2.3,2.6,4.7,5.1,6.7,7.8
	c3.9,5.3,8.3,5.4,13,0.7c3-3,6.2-6.2,11.1-5.9c2,0.1,3.9,0.6,6,0.9c0.3-1.2,0.5-2.7,1.2-4c0.6-1,1.8-2.1,2.8-2.2
	c0.6-0.1,1.9,1.3,2.2,2.3c0.6,1.8,1,3.8,1.1,5.8c0.1,0.6-0.7,1.3-1.2,2c-0.6,0.8-2.4,0.9-1.8,2.6c0.6,1.8,2.4,3.1,4.1,2.6
	c3.6-1,7.3-2.2,10.8-3.6c3.8-1.6,7.4-3.6,11.2-5.3c1.8-0.8,3.7-1.5,5.6-1.7c1.4-0.1,3.2,0.2,4.3,1c4.5,3.2,9.3,3.4,13.7,0.2
	c2-1.4,3.8-2.3,6.3-1.5c2.4,0.7,4.2-0.4,5.4-2.5c1.4-2.3,3.2-2.9,5.5-1.9c2.5,1.1,4.6,4.3,3.9,6.4c-0.3,0.8-1.2,1.8-2.1,2.1
	c-2,0.6-4.1,1-6.2,1.1c-4.5,0.3-8.4,1.8-11.9,4.7c-1.2,1-2.5,1.6-3.7,2.6c-0.6,0.5-1.2,1.3-1.2,2c0,0.5,0.9,1.3,1.6,1.5
	c6.5,1.7,12.8,4.3,20,3.3c7.2-1.1,14.1-2.2,20-6.9c3-2.4,6.6-3.7,10.4-4.4c3.3-0.6,5.7-2.3,7.3-5.2c1.5-2.6,3.5-4.2,6.7-4.3
	c2.5-0.1,4.4-1.4,5.4-3.9c0.4-1,1-2,2.4-1.3c1.2,0.7,1.2,1.8,0.7,2.9c-1.3,2.6-3.5,3.8-6.2,4.4c-2.4,0.5-4,1.9-5.3,3.8
	c-0.4,0.7-0.8,2-0.5,2.5c0.4,0.7,1.7,1.2,2.5,1.1c1.7-0.2,3.6-0.6,5.1-1.4c2.8-1.5,5.4-3.4,8.1-5.2c1.8-1.1,3.4-2.5,5.3-3.3
	c2.7-1.2,6.5,0.9,7.5,3.9c1,3-0.8,6.5-3.9,7.3c-1.3,0.3-2.7,0.5-4.1,0.5c-6.4-0.2-12.5,0.9-18.6,2.9c-2.1,0.7-4.2,1.2-6.2,1.8
	c-0.6,0.2-1.1,0.4-1.6,0.7c-3.1,1.8-4,3.8-2.6,6h627.6v0.5H2172v-197h2V-58.7z M159.1,2495.6c-1.9,0-3.4-1.6-3.4-3.6
	c0-1.7,1.2-3,2.7-3c1.9,0,3.8,1.7,3.8,3.5C162.3,2494.1,160.8,2495.6,159.1,2495.6z M27.3,2470.7c-0.6-0.1-1.6-1.2-1.5-1.5
	c0.3-0.7,1.1-1.3,1.8-1.9c0.6,0.6,1.1,1.2,2,2.2C28.6,2470.1,27.9,2470.8,27.3,2470.7z M101.8,2473.9c-1.9,0-3.2-1.2-3.2-3
	c0-2.1,1.1-3.4,2.7-3.4c1.7,0,3,1.7,3.1,3.9C104.4,2473,103.5,2473.8,101.8,2473.9z M111.4,2469.5c-0.6,0-1.7-1.1-1.6-1.4
	c0.3-0.8,1-1.4,1.6-2.1c0.6,0.5,1.3,1.1,2.4,1.9C112.8,2468.7,112.1,2469.5,111.4,2469.5z M158.5,2462.9c-0.2,0.5-0.8,0.9-1.3,1.2
	c-0.2,0.1-1-0.7-0.9-0.9c0.1-0.5,0.6-1,1.1-1.8C158,2462.1,158.6,2462.7,158.5,2462.9z M170.3,2483.5c-0.5-0.1-0.9-0.5-1.3-1
	c-0.2-0.3-0.5-0.6-0.7-0.8c0.3-0.3,0.6-0.7,0.9-1c0.3-0.3,0.6-0.6,1-0.7c1.1-0.1,2.2,0.4,2.2,2.5
	C171.8,2482.7,171,2483.6,170.3,2483.5z"/>
</svg>
