<?xml version="1.0" encoding="utf-8"?>
<!-- Generator: Adobe Illustrator 19.0.0, SVG Export Plug-In . SVG Version: 6.00 Build 0)  -->
<svg version="1.1" id="Layer_1" xmlns="http://www.w3.org/2000/svg" xmlns:xlink="http://www.w3.org/1999/xlink" x="0px" y="0px"
	 viewBox="0 0 760 2000" style="enable-background:new 0 0 760 2000;" xml:space="preserve">
<style type="text/css">
	.st0{fill-rule:evenodd;clip-rule:evenodd;}
</style>
<g id="XMLID_3_">
	<g id="XMLID_35_">
		<path id="XMLID_37_" class="st0" d="M2000-275l-3647.2,7.8l2.2,2237.2H330.5c3.5,0.3,7,0.7,8.4,2c4.1,3.9,5.5,5.7,7.5,5.9
			c3.7,0.3,3.7-3.4,7.6-2.3c3.3,0.9,4.8,6.4,8.1,6.3c3.4-0.1,6.7-8.6,9.7-9c1.3-0.2,2,0.1,3.1,1.3c1,1.1,1.7,3.9,1.8,4.9
			c0.5,6.4-4.9,17,0,20c4,2.4,7.3-0.9,7.1-5.1c-0.2-5.2-1.5-8.6-2-11.8c-0.8-5.3,1-8.6,3.5-9.8c3.4-1.7,8.1-1.3,11,3.1
			c3.4,5.2,3.3,7.9,6.7,7.9c3.7,0,4.2-4.1,5.9-8.7c0.5-1.3,1.9-4.9,9.8-4.7c0,0-0.1,0-0.1,0H2000V-275z"/>
	</g>
</g>
</svg>
