<?xml version="1.0" encoding="utf-8"?>
<!-- Generator: Adobe Illustrator 21.1.0, SVG Export Plug-In . SVG Version: 6.00 Build 0)  -->
<svg version="1.1" id="Layer_1" xmlns="http://www.w3.org/2000/svg" xmlns:xlink="http://www.w3.org/1999/xlink" x="0px" y="0px"
	 viewBox="0 0 750 2500" style="enable-background:new 0 0 750 2500;" xml:space="preserve">
<g>
	<path d="M389.7,4.8c0.2-0.1,0.3-0.5,0-0.6c0,0-0.1,0-0.1,0c-0.1-0.2-0.3-0.3-0.5-0.2c0,0-0.1,0-0.1,0c-3.1-0.9-6.3-0.9-9.4,0
		c-1.8,0.5-4.8,1.5-4.8,3.9c0,1.7,1.5,2.4,2.9,2.1c1.5-0.3,3-1.6,4.3-2.3c2.3-1.2,4.7-1.9,7.2-2.5C389.5,5.2,389.6,5,389.7,4.8z"/>
	<path d="M3171.1,250.7c-5.1-77.7-10.2-155.4-15.3-233.1c-801.1-1.2-1602.3-2.4-2403.4-3.6H398.7c0.3-0.3,0.6-0.7,0.9-1.1
		c1.6-2.8-0.3-6.4-2.3-8.3c-6.1-6-16-4.5-23.2-1.6c-4.9,2-9.4,4.8-14,7.4c-2.3,1.3-4.8,3-7.5,3.4c-0.3,0-0.6,0.1-0.9,0.1
		c-1-0.4-1.9-0.8-2.4-1.9c-0.6-1.3,0.1-2.9,1.4-3.4c0.1,0.1,0.2,0.2,0.4,0.3c0.4,0.2,0.5,0.6,0.4,1.2c-0.2,0.4,0.5,0.8,0.7,0.4
		c1.9-3.2-4.6-5.1-6-1.4c-0.7,1.8,0.1,3.8,1.6,5H-3.5C-978,3.2-1952.5-7.6-2927-18.4c1.5,74.7,3,149.4,4.5,224.1c0.5,0,1,0,1.5,0
		v3513.1h6088.8C3168.9,2562.8,3170,1406.8,3171.1,250.7z M357.2,13.6c8.5-4.3,16.4-10.6,26.2-11.6c0.7-0.1,1.3-0.1,2-0.1
		c0.1,0.1,0.2,0.2,0.3,0.2c3.3,0.1,6.5,0.9,8.5,3.8c1,1.4,1.6,3.4,1.4,5.2c-0.2,2-2.7,3.8-4.5,2.2c-1.1-0.9-2-3.8-0.3-4.6
		c0.2,0,0.4,0.1,0.6,0.2c0.8,0.4,1.4-0.9,0.5-1.3c-2.2-1-4.7,0.2-5.4,2.5c-0.4,1.5,0,2.9,0.9,4h-31.3
		C356.6,13.9,356.9,13.7,357.2,13.6z"/>
</g>
<path d="M-5626.4-1200.1"/>
</svg>
